<?xml version="1.0" encoding="utf-8" ?>
<svg xmlns="http://www.w3.org/2000/svg" xmlns:xlink="http://www.w3.org/1999/xlink" width="1024" height="1024">
	<path fill="#FA5458" d="M511.285 798.603C434.42 797.863 368.868 774.853 312.728 721.472Q310.178 719.076 307.689 716.617Q305.2 714.159 302.772 711.639Q300.345 709.119 297.981 706.54Q295.617 703.96 293.317 701.323Q291.018 698.686 288.785 695.992Q286.552 693.299 284.386 690.55Q282.221 687.802 280.124 685.001Q278.028 682.2 276.002 679.348Q273.975 676.495 272.02 673.593Q270.066 670.692 268.184 667.742Q266.301 664.793 264.493 661.797Q262.685 658.802 260.952 655.762Q259.218 652.723 257.561 649.642Q255.904 646.56 254.324 643.439Q252.744 640.317 251.242 637.157Q249.739 633.997 248.316 630.801Q246.893 627.604 245.55 624.374Q244.207 621.143 242.944 617.88Q241.681 614.617 240.5 611.323Q239.319 608.03 238.22 604.708Q237.121 601.386 236.105 598.038Q235.089 594.69 234.156 591.318Q233.223 587.946 232.375 584.551Q231.526 581.157 230.762 577.743Q229.998 574.328 229.319 570.896Q228.641 567.464 228.047 564.015Q227.454 560.567 226.946 557.105Q226.439 553.644 226.017 550.17Q225.596 546.697 225.261 543.214Q224.926 539.731 224.677 536.241Q224.429 532.751 224.267 529.256Q224.106 525.761 224.031 522.263C222.303 443.996 249.748 368.237 304.261 311.521C360.2 253.32 433.934 224.046 514.057 222.511L514.187 324.001L409.995 323.95C392.582 323.951 368.593 321.942 352.006 325.835C339.383 328.798 327.412 335.722 318.313 344.921C309.594 353.736 303.155 364.705 300.638 376.886C297.742 390.906 298.589 405.609 298.683 419.851L298.84 463.478Q298.329 539.711 298.691 615.944C298.957 640.301 298.494 661.355 317.313 679.618C325.81 687.864 336.828 694.742 348.426 697.499C363.024 700.968 391.551 699.338 407.299 699.354L511.068 699.313C511.004 732.317 510.05 765.629 511.285 798.603Z"/>
	<path fill="#05B5AB" d="M514.057 222.511C532.499 223.667 550.741 225.28 568.871 229.025Q571.712 229.62 574.54 230.272Q577.369 230.923 580.183 231.631Q582.998 232.339 585.799 233.103Q588.599 233.867 591.383 234.686Q594.168 235.506 596.935 236.38Q599.703 237.255 602.452 238.185Q605.202 239.114 607.933 240.098Q610.663 241.083 613.374 242.121Q616.084 243.16 618.773 244.252Q621.462 245.344 624.129 246.489Q626.796 247.635 629.44 248.833Q632.083 250.032 634.702 251.283Q637.322 252.533 639.915 253.836Q642.509 255.139 645.076 256.493Q647.644 257.847 650.183 259.252Q652.723 260.657 655.234 262.113Q657.746 263.568 660.228 265.073Q662.709 266.578 665.161 268.132Q667.612 269.686 670.032 271.289Q672.452 272.892 674.839 274.542Q677.227 276.193 679.581 277.891Q681.935 279.589 684.255 281.333Q686.575 283.077 688.86 284.867Q691.144 286.658 693.393 288.493Q695.641 290.328 697.853 292.208Q700.064 294.088 702.238 296.011Q704.412 297.935 706.547 299.901Q708.682 301.868 710.777 303.876Q712.872 305.885 714.927 307.934Q716.982 309.984 718.996 312.075Q721.01 314.165 722.981 316.295Q724.953 318.425 726.882 320.594Q729.276 323.297 731.603 326.059Q733.93 328.82 736.188 331.638Q738.447 334.456 740.636 337.328Q742.824 340.2 744.942 343.125Q747.059 346.05 749.104 349.026Q751.149 352.003 753.121 355.028Q755.092 358.054 756.989 361.127Q758.885 364.2 760.706 367.318Q762.526 370.437 764.27 373.599Q766.013 376.761 767.678 379.966Q769.344 383.17 770.93 386.414Q772.516 389.658 774.022 392.94Q775.528 396.222 776.953 399.54Q778.378 402.858 779.721 406.21Q781.065 409.562 782.325 412.946Q783.585 416.33 784.763 419.744Q785.94 423.158 787.033 426.599Q788.125 430.041 789.134 433.509Q790.142 436.976 791.064 440.467Q791.987 443.959 792.824 447.471Q793.66 450.984 794.411 454.517Q795.161 458.049 795.824 461.598Q796.488 465.148 797.064 468.713Q797.64 472.278 798.128 475.856Q798.616 479.434 799.017 483.022Q799.417 486.611 799.729 490.209Q800.041 493.806 800.265 497.411Q800.489 501.015 800.624 504.623Q800.759 508.232 800.806 511.843Q800.853 515.453 800.81 519.064Q800.768 522.675 800.638 526.284Q800.507 529.893 800.288 533.497Q800.059 536.969 799.746 540.435Q799.433 543.901 799.034 547.358Q798.636 550.815 798.154 554.261Q797.671 557.707 797.104 561.141Q796.537 564.574 795.887 567.992Q795.236 571.411 794.502 574.812Q793.768 578.214 792.95 581.597Q792.133 584.979 791.234 588.341Q790.334 591.702 789.352 595.041Q788.37 598.379 787.307 601.693Q786.244 605.006 785.1 608.293Q783.956 611.579 782.732 614.837Q781.508 618.094 780.205 621.321Q778.902 624.547 777.52 627.741Q776.138 630.934 774.678 634.093Q773.219 637.252 771.682 640.375Q770.145 643.497 768.533 646.581Q766.92 649.664 765.233 652.708Q763.546 655.751 761.784 658.752Q760.023 661.753 758.188 664.71Q756.354 667.667 754.448 670.579Q752.542 673.49 750.565 676.354Q748.588 679.218 746.542 682.032Q744.495 684.847 742.381 687.61Q740.266 690.374 738.084 693.085Q735.903 695.796 733.655 698.453Q731.408 701.11 729.096 703.711Q726.785 706.312 724.41 708.856Q722.035 711.4 719.599 713.884Q717.163 716.369 714.667 718.794Q712.171 721.218 709.616 723.581Q707.061 725.943 704.449 728.243Q701.054 731.179 697.569 734.008Q694.085 736.837 690.514 739.557Q686.944 742.277 683.291 744.886Q679.638 747.494 675.907 749.988Q672.175 752.482 668.368 754.859Q664.561 757.237 660.682 759.496Q656.803 761.754 652.856 763.892Q648.909 766.029 644.898 768.043Q640.887 770.058 636.815 771.947Q632.744 773.836 628.616 775.599Q624.488 777.361 620.307 778.995Q616.127 780.629 611.898 782.133Q607.669 783.637 603.395 785.009Q599.122 786.381 594.808 787.621Q590.494 788.86 586.144 789.965Q581.793 791.071 577.411 792.041Q569.258 793.718 561.03 794.969Q552.801 796.22 544.519 797.042Q536.236 797.864 527.922 798.254Q519.608 798.645 511.285 798.603C510.05 765.629 511.004 732.317 511.068 699.313Q578.469 699.051 645.868 699.677C668.561 699.903 687.687 698.181 704.669 681.323Q706.266 679.746 707.746 678.058Q709.225 676.369 710.579 674.578Q711.932 672.788 713.153 670.904Q714.373 669.02 715.454 667.052Q716.536 665.085 717.472 663.045Q718.408 661.005 719.194 658.902Q719.98 656.8 720.613 654.646Q721.245 652.492 721.72 650.298C724.136 638.577 723.568 626.229 723.566 614.324L723.461 568.501L723.569 403.561C723.52 379.461 720.671 361.933 702.746 344.257C694.035 335.668 683.79 329.193 671.878 326.149C654.826 321.79 623.892 323.598 605.294 323.659L514.187 324.001L514.057 222.511Z"/>
	<path fill="#FA5458" d="M361.677 483.587C370.235 482.786 378.139 484.142 385.081 489.504C391.98 494.833 396.485 503.321 397.58 511.923Q397.691 512.786 397.759 513.654Q397.827 514.522 397.852 515.392Q397.877 516.262 397.858 517.133Q397.839 518.003 397.776 518.871Q397.714 519.739 397.608 520.603Q397.502 521.467 397.354 522.325Q397.205 523.183 397.013 524.032Q396.822 524.881 396.588 525.72Q396.355 526.558 396.079 527.384Q395.804 528.21 395.488 529.021Q395.172 529.832 394.815 530.626Q394.459 531.42 394.063 532.196Q393.668 532.971 393.234 533.726Q392.8 534.48 392.329 535.213Q391.858 535.945 391.351 536.652Q390.844 537.36 390.302 538.041C384.779 545.031 377.137 548.792 368.396 549.827C361.018 550.449 353.544 548.992 347.216 545.067Q346.526 544.64 345.859 544.178Q345.191 543.716 344.548 543.222Q343.904 542.728 343.286 542.201Q342.668 541.675 342.077 541.119Q341.487 540.563 340.924 539.977Q340.362 539.392 339.83 538.779Q339.298 538.167 338.797 537.528Q338.296 536.889 337.828 536.226Q337.36 535.563 336.926 534.878Q336.491 534.192 336.092 533.486Q335.692 532.779 335.329 532.054Q334.965 531.328 334.639 530.585Q334.312 529.842 334.023 529.084Q333.734 528.326 333.483 527.554Q333.233 526.782 333.021 525.999Q332.809 525.215 332.637 524.422C330.686 515.669 332.165 506.009 337.047 498.437C342.78 489.544 351.726 485.817 361.677 483.587Z"/>
	<path fill="#05B5AB" d="M360.847 368.142Q362.273 367.969 363.708 367.915Q365.143 367.86 366.578 367.924Q368.013 367.988 369.438 368.171Q370.862 368.353 372.267 368.652Q373.672 368.951 375.047 369.366Q376.422 369.78 377.759 370.306Q379.095 370.832 380.384 371.467Q381.672 372.101 382.904 372.84C390.352 377.36 395.317 384.727 397.287 393.162Q397.481 393.974 397.634 394.795Q397.787 395.616 397.899 396.444Q398.011 397.272 398.083 398.104Q398.154 398.936 398.184 399.771Q398.214 400.605 398.203 401.44Q398.192 402.275 398.139 403.109Q398.087 403.943 397.993 404.772Q397.899 405.602 397.765 406.427Q397.63 407.251 397.455 408.068Q397.279 408.884 397.064 409.691Q396.849 410.498 396.594 411.293Q396.338 412.089 396.044 412.87Q395.75 413.652 395.418 414.418Q395.086 415.184 394.716 415.933Q394.346 416.682 393.939 417.412Q393.533 418.141 393.091 418.85C387.594 427.662 379.374 431.717 369.554 434.034C361.146 434.672 353.077 433.133 346.07 428.279C338.551 423.071 333.786 415.437 332.153 406.463C330.623 398.052 332.332 389.031 337.244 381.979C342.905 373.85 351.315 369.799 360.847 368.142Z"/>
	<path fill="#05B5AB" d="M362.828 595.604Q364.195 595.514 365.565 595.539Q366.934 595.564 368.297 595.703Q369.66 595.843 371.006 596.096Q372.352 596.35 373.672 596.715Q374.993 597.08 376.278 597.555Q377.562 598.03 378.803 598.611Q380.044 599.191 381.231 599.874Q382.419 600.557 383.545 601.337C391.168 606.521 396.728 614.926 398.282 624.043C399.697 632.337 397.308 640.79 392.455 647.563C386.473 655.913 378.263 660.277 368.294 662.002C360.441 662.194 353.513 661.281 346.747 657.008Q346.04 656.565 345.355 656.088Q344.671 655.61 344.012 655.099Q343.352 654.587 342.72 654.043Q342.087 653.5 341.482 652.925Q340.877 652.35 340.302 651.746Q339.726 651.141 339.182 650.509Q338.638 649.876 338.126 649.218Q337.614 648.559 337.135 647.875Q336.657 647.191 336.214 646.484Q335.77 645.777 335.363 645.049Q334.956 644.321 334.585 643.573Q334.215 642.825 333.882 642.06Q333.55 641.295 333.256 640.514Q332.963 639.733 332.708 638.938Q332.454 638.143 332.24 637.337Q332.026 636.53 331.853 635.714Q331.68 634.929 331.546 634.137Q331.413 633.344 331.319 632.546Q331.225 631.748 331.171 630.947Q331.117 630.145 331.103 629.341Q331.09 628.538 331.116 627.735Q331.143 626.932 331.209 626.131Q331.276 625.33 331.382 624.534Q331.489 623.737 331.635 622.947Q331.781 622.157 331.967 621.375Q332.152 620.593 332.377 619.821Q332.601 619.05 332.864 618.29Q333.126 617.531 333.427 616.786Q333.727 616.04 334.064 615.311Q334.401 614.581 334.775 613.87Q335.148 613.158 335.556 612.466Q335.965 611.774 336.407 611.103C342.766 601.482 351.94 597.753 362.828 595.604Z"/>
	<path fill="#05B5AB" d="M461.569 367.748C473.14 367.544 484.815 368.019 496.401 368.029L588.127 368.043L628.352 367.996C639.409 367.9 650.551 367.223 661.531 368.876C668.254 369.888 674.037 372.519 679.024 377.165Q679.616 377.709 680.181 378.282Q680.745 378.855 681.281 379.455Q681.816 380.055 682.321 380.681Q682.826 381.306 683.299 381.957Q683.772 382.607 684.213 383.28Q684.653 383.952 685.06 384.646Q685.466 385.34 685.838 386.053Q686.209 386.766 686.545 387.497Q686.881 388.228 687.18 388.974Q687.479 389.721 687.741 390.481Q688.003 391.242 688.226 392.014Q688.45 392.787 688.635 393.569Q688.82 394.352 688.966 395.143Q689.112 395.933 689.219 396.73Q689.325 397.527 689.392 398.329Q689.459 399.13 689.486 399.934Q689.504 400.789 689.48 401.645Q689.455 402.5 689.388 403.353Q689.321 404.206 689.212 405.054Q689.102 405.903 688.951 406.745Q688.799 407.587 688.606 408.42Q688.412 409.254 688.178 410.077Q687.943 410.899 687.668 411.709Q687.393 412.52 687.078 413.315Q686.762 414.11 686.408 414.889Q686.054 415.668 685.661 416.428Q685.268 417.188 684.838 417.927Q684.408 418.667 683.941 419.384Q683.475 420.102 682.974 420.795Q682.472 421.488 681.937 422.155Q681.401 422.823 680.833 423.462Q680.265 424.102 679.666 424.713C670.312 434.312 658.341 434.914 645.748 435.088L514.67 434.895L476.789 434.954C466.328 435.002 455.381 435.538 445.039 433.802C438.796 432.755 433.285 429.931 428.574 425.71Q427.957 425.153 427.369 424.566Q426.78 423.98 426.221 423.365Q425.663 422.749 425.135 422.107Q424.607 421.465 424.112 420.798Q423.617 420.131 423.155 419.44Q422.693 418.749 422.267 418.036Q421.84 417.323 421.448 416.59Q421.057 415.857 420.703 415.105Q420.348 414.353 420.032 413.585Q419.715 412.817 419.436 412.034Q419.158 411.251 418.919 410.455Q418.679 409.659 418.48 408.853Q418.28 408.046 418.12 407.23Q417.961 406.415 417.842 405.592Q417.723 404.77 417.644 403.943Q417.566 403.115 417.529 402.285Q417.491 401.486 417.493 400.685Q417.495 399.885 417.538 399.086Q417.58 398.287 417.663 397.491Q417.745 396.695 417.867 395.904Q417.989 395.113 418.151 394.329Q418.313 393.545 418.514 392.77Q418.715 391.996 418.954 391.232Q419.194 390.468 419.471 389.718Q419.749 388.967 420.063 388.231Q420.378 387.496 420.729 386.776Q421.081 386.057 421.468 385.357Q421.855 384.656 422.276 383.976Q422.698 383.296 423.153 382.638Q423.608 381.979 424.096 381.345Q424.583 380.71 425.102 380.101Q425.621 379.492 426.17 378.909C435.759 368.569 448.393 368.175 461.569 367.748Z"/>
	<path fill="#05B5AB" d="M449.433 481.695C457.988 480.449 467.609 481.422 476.278 481.448L531.782 481.506L613.088 481.487C627.558 481.476 642.535 480.538 656.931 481.905C663.574 482.535 670.191 483.993 675.657 488.031C682.859 493.352 687.397 501.757 688.58 510.576C689.766 519.419 687.281 529.351 681.805 536.426C675.579 544.469 666.963 547.989 657.123 549.188C646.887 550.336 635.678 549.499 625.358 549.494L562.526 549.489L487.958 549.511C474.338 549.513 459.902 550.439 446.366 548.873C440.452 548.189 435.176 546.026 430.507 542.343C423.239 536.608 418.881 528.418 417.829 519.255C416.8 510.3 419.236 500.756 424.929 493.696C431.245 485.865 439.706 482.816 449.433 481.695Z"/>
	<path fill="#05B5AB" d="M451.186 592.691C465.721 591.694 480.538 592.473 495.111 592.505L573.78 592.532L628.399 592.479C638.413 592.445 649.427 591.577 659.341 592.878Q660.452 593.028 661.551 593.252Q662.65 593.477 663.731 593.775Q664.812 594.073 665.87 594.444Q666.928 594.814 667.959 595.255Q668.99 595.696 669.989 596.206Q670.988 596.715 671.95 597.291Q672.913 597.867 673.834 598.506Q674.755 599.146 675.631 599.846Q676.323 600.407 676.987 601.002Q677.651 601.597 678.284 602.224Q678.918 602.851 679.519 603.508Q680.121 604.166 680.689 604.852Q681.258 605.539 681.792 606.253Q682.326 606.966 682.823 607.705Q683.321 608.445 683.782 609.208Q684.243 609.971 684.665 610.755Q685.088 611.54 685.471 612.345Q685.854 613.15 686.197 613.972Q686.539 614.795 686.841 615.634Q687.143 616.472 687.403 617.325Q687.663 618.177 687.88 619.042Q688.098 619.906 688.272 620.78Q688.447 621.654 688.578 622.535Q688.709 623.417 688.796 624.304C689.66 632.913 687.111 641.936 681.536 648.59C674.069 657.503 664.758 660.341 653.554 661.297C642.176 662.087 630.357 661.265 618.913 661.262L545.427 661.335L483.043 661.47C471.889 661.506 460.057 662.317 448.977 661.096C441.984 660.324 435.514 658.287 429.946 653.875C422.768 648.188 418.404 639.568 417.366 630.532C416.319 621.408 418.597 612.548 424.435 605.388C431.548 596.663 440.358 593.819 451.186 592.691Z"/>
</svg>
