<?xml version="1.0" encoding="utf-8" ?>
<svg xmlns="http://www.w3.org/2000/svg" xmlns:xlink="http://www.w3.org/1999/xlink" width="2497" height="2497">
	<path fill="#05B6AB" transform="scale(2.43848 2.43848)" d="M795.195 697.998C804.33 699.521 813.177 702.268 822.391 703.547C830.434 704.663 838.829 704.272 846.768 705.57L852.858 720.862C830.963 722.683 809.331 725.876 787.501 728.182Q746.039 732.327 704.466 735.15C704.719 730.47 704.334 721.388 706.617 717.265C717.743 715.296 728.957 713.84 740.081 711.852Q757.777 708.654 775.187 704.153C781.867 702.494 789.089 701.276 795.195 697.998Z"/>
	<path fill="#D3D4D4" transform="scale(2.43848 2.43848)" d="M696.566 633.077C701.439 631.113 706.773 630.085 711.74 628.272C722.602 624.309 732.956 619.315 744.226 616.528C745.64 641.813 754.331 668.64 773.788 685.947C780.045 691.513 787.336 695.212 795.195 697.998C789.089 701.276 781.867 702.494 775.187 704.153Q757.777 708.654 740.081 711.852C728.957 713.84 717.743 715.296 706.617 717.265C708.161 708.713 707.561 699.641 707.453 690.986C707.531 688.159 707.858 685.303 707.985 682.469C708.006 682.295 708.031 682.121 708.048 681.946C709.791 664.536 707.689 647.201 696.566 633.077Z"/>
	<path fill="#012A35" transform="scale(2.43848 2.43848)" d="M179.502 670.3Q225.255 681.83 271.177 692.661C280.044 694.741 288.862 697.664 297.747 699.503C299.068 699.776 299.561 699.641 300.729 699.008L301.552 697.623L302.574 697.142C305.086 701.24 306.86 706.323 308.906 710.728Q314.69 722.988 320.685 735.146C268.404 726.135 216.367 715.37 163.926 707.289C168.533 694.821 174.563 682.689 179.502 670.3Z"/>
	<path fill="#FC6867" transform="scale(2.43848 2.43848)" d="M560.532 549.831C554.221 523.005 552.444 496.557 558.383 469.448C567.796 426.476 595.885 386.25 632.88 362.461C672.785 336.801 720.17 325.815 766.992 336.044C801.103 343.496 830.216 363.577 854.002 388.532C859.777 394.591 865.731 400.836 870.255 407.906C871.861 410.2 873.55 412.452 874.719 415.009C878.11 420.104 886.004 432.78 886.836 438.336C886.804 440.087 887.001 441.579 887.352 443.293L887.292 444.17C887.065 447.882 887.714 451.425 886.543 455.068L885.836 455.38L885.055 454.693L884.338 455.046C881.117 452.071 878.268 448.608 875.128 445.525C867.341 437.877 836.589 408.089 830.135 405.578C827.041 403.295 823.918 399.381 821.011 396.671C811.65 390.408 802.056 384.031 791.644 379.63C764.697 368.242 730.235 366.968 701.775 372.603C675.342 377.836 650.079 389.707 630.305 408.235C631.266 414.114 632.444 419.817 634.435 425.446C631.121 447.615 630.301 472.175 636.899 493.681C634.733 501.168 631.444 508.011 627.263 514.584C623.383 520.684 610.161 534.97 609.382 541.047C609.207 542.414 609.736 544.419 610.374 545.623C611.771 548.258 614.421 549.263 617.151 549.994C621.525 551.166 627.337 551.369 629.773 555.823C632.612 561.014 628.382 578.942 634.001 580.841C635.145 581.228 634.687 581.088 635.893 581.383C635.934 585.36 635.728 607.029 637.715 608.537C637.919 608.692 638.172 608.768 638.401 608.884L637.589 609.295C636.538 613.494 638.712 620.671 640.846 624.352C644.059 629.898 649.721 633.315 655.828 634.838C666.011 637.377 686.551 636.415 696.566 633.077C707.689 647.201 709.791 664.536 708.048 681.946C708.031 682.121 708.006 682.295 707.985 682.469C707.858 685.303 707.531 688.159 707.453 690.986C691.951 688.431 677.548 686.181 662.745 680.495C624.765 665.906 591.641 634.289 575.027 597.1L574.266 595.325C573.043 594.889 528.65 595.065 524.083 595.355C535.997 579.969 548.289 564.95 560.532 549.831Z"/>
	<path fill="#FC979A" transform="scale(2.43848 2.43848)" d="M880.309 428.498C877.805 424.919 869.278 412.453 868.959 408.776L870.255 407.906C871.861 410.2 873.55 412.452 874.719 415.009C874.707 418.873 879.087 424.485 880.309 428.498Z"/>
	<path fill="#D3D4D4" transform="scale(2.43848 2.43848)" d="M821.011 396.671C830.663 400.997 837.315 411.146 845.866 417.168C853.385 422.464 861.727 424.713 868.463 431.487C873.373 436.425 876.088 442.84 879.937 448.528C881.455 450.772 883.577 452.496 885.055 454.693L884.338 455.046C881.117 452.071 878.268 448.608 875.128 445.525C867.341 437.877 836.589 408.089 830.135 405.578C827.041 403.295 823.918 399.381 821.011 396.671Z"/>
	<path fill="#FE4463" transform="scale(2.43848 2.43848)" d="M575.027 597.1L575.547 595.512C576.283 595.279 576.569 594.997 577.326 595.341C579.831 596.479 594.826 619.614 598.42 623.829C623.202 652.893 654.511 670.582 690.492 682.244C693.825 683.324 703.119 687.529 706.178 686.636C706.741 685.222 707.323 683.84 707.985 682.469C707.858 685.303 707.531 688.159 707.453 690.986C691.951 688.431 677.548 686.181 662.745 680.495C624.765 665.906 591.641 634.289 575.027 597.1Z"/>
	<path fill="#FE4463" transform="scale(2.43848 2.43848)" d="M498.009 232.692C517.13 231.145 536.777 233.769 555.082 239.321C579.053 246.592 602.826 260.134 614.884 283C622.25 296.968 624.13 313.116 619.367 328.246C610.915 355.096 587.481 372.924 563.544 385.332C561.046 401.5 558.885 417.958 558.296 434.319C549.951 428.051 542.257 420.83 534.512 413.846C528.089 408.226 521.442 402.942 514.715 397.693C481.617 399.333 445.738 388.836 420.12 367.733C404.978 355.259 392.996 338.075 391.134 318.124C389.602 301.705 395.298 285.358 405.807 272.764C428.214 245.913 464.443 235.739 498.009 232.692Z"/>
	<path fill="#F6F6F6" transform="scale(2.43848 2.43848)" d="M504.09 299.633C506.446 299.609 509.306 299.927 511.562 300.644Q511.945 300.765 512.321 300.906Q512.697 301.047 513.065 301.208Q513.433 301.369 513.792 301.548Q514.151 301.728 514.5 301.926Q514.849 302.125 515.187 302.341Q515.526 302.557 515.852 302.791Q516.178 303.025 516.492 303.276Q516.806 303.526 517.106 303.793Q517.406 304.06 517.692 304.342Q517.978 304.624 518.248 304.921Q518.519 305.217 518.773 305.528Q519.028 305.838 519.266 306.162Q519.504 306.485 519.724 306.821Q519.945 307.156 520.148 307.503Q520.35 307.85 520.534 308.206Q520.719 308.563 520.884 308.929C522.7 312.883 522.933 317.438 521.303 321.49C519.181 326.768 515.014 329.444 509.985 331.495C507.263 331.646 504.802 331.609 502.209 330.661Q501.445 330.388 500.713 330.039Q499.981 329.69 499.288 329.268Q498.595 328.847 497.948 328.357Q497.302 327.867 496.708 327.315Q496.114 326.762 495.58 326.152Q495.045 325.542 494.575 324.881Q494.105 324.22 493.705 323.515Q493.304 322.809 492.977 322.067Q492.64 321.322 492.38 320.546Q492.12 319.77 491.939 318.973Q491.758 318.175 491.658 317.363Q491.558 316.551 491.541 315.733Q491.523 314.915 491.588 314.099Q491.653 313.284 491.799 312.479Q491.946 311.674 492.173 310.888Q492.399 310.102 492.704 309.343C494.903 304.009 499.004 301.624 504.09 299.633Z"/>
	<path fill="#F6F6F6" transform="scale(2.43848 2.43848)" d="M551.935 299.526C554.616 299.388 557.049 299.646 559.566 300.636C563.675 302.253 566.857 305.343 568.481 309.463Q568.785 310.225 569.011 311.014Q569.237 311.803 569.383 312.611Q569.528 313.419 569.592 314.237Q569.656 315.055 569.638 315.876Q569.62 316.696 569.52 317.511Q569.419 318.325 569.238 319.126Q569.057 319.926 568.796 320.705Q568.535 321.483 568.198 322.231C565.726 327.656 561.496 330.025 556.181 331.993C553.564 331.898 550.813 331.544 548.426 330.418Q547.673 330.064 546.958 329.637Q546.243 329.21 545.575 328.715Q544.906 328.219 544.29 327.659Q543.674 327.1 543.117 326.482Q542.559 325.863 542.066 325.193Q541.573 324.522 541.148 323.806Q540.724 323.09 540.373 322.336Q540.022 321.581 539.748 320.795C538.258 316.645 538.418 311.96 540.416 308.003C542.923 303.037 546.936 301.158 551.935 299.526Z"/>
	<path fill="#F6F6F6" transform="scale(2.43848 2.43848)" d="M455.806 299.545C458.584 299.406 460.975 299.525 463.631 300.427C467.733 301.821 471.099 304.604 472.951 308.559Q473.291 309.298 473.557 310.068Q473.822 310.837 474.011 311.628Q474.199 312.42 474.309 313.226Q474.419 314.032 474.448 314.846Q474.478 315.659 474.428 316.471Q474.377 317.283 474.247 318.086Q474.117 318.89 473.909 319.676Q473.7 320.463 473.415 321.225C471.368 326.652 467.294 329.378 462.282 331.703C459.294 331.807 456.518 331.814 453.68 330.688Q453.287 330.533 452.903 330.357Q452.519 330.182 452.145 329.986Q451.77 329.791 451.406 329.576Q451.043 329.361 450.691 329.128Q450.339 328.894 450 328.643Q449.66 328.391 449.335 328.122Q449.009 327.853 448.698 327.567Q448.387 327.282 448.091 326.98Q447.795 326.679 447.516 326.362Q447.236 326.046 446.974 325.715Q446.711 325.384 446.466 325.04Q446.221 324.696 445.994 324.34Q445.768 323.983 445.56 323.616Q445.352 323.248 445.164 322.87Q444.976 322.492 444.808 322.104Q444.64 321.717 444.492 321.321C442.934 317.214 442.979 312.527 444.825 308.52C447.133 303.513 450.925 301.414 455.806 299.545Z"/>
	<path fill="#05B6AB" transform="scale(2.43848 2.43848)" d="M185.475 659.597Q172.413 644.978 161.096 628.97C133.286 590.172 117.117 548.344 119.476 500.117C121.708 454.507 144.42 410.216 178.143 379.802C211.354 349.849 255.625 332.548 300.571 334.92C348.444 337.446 389.488 354.876 421.823 390.834C454.43 427.093 471.845 472.907 469.237 521.805Q468.366 536.42 466.12 550.888C479.182 564.141 489.925 580.28 501.365 594.948C484.64 595.159 467.394 595.749 450.716 594.714C431.279 636.13 390.823 669.055 348.093 684.55C342.647 686.525 337.057 688.377 331.448 689.824C325.073 691.469 306.627 693.84 302.574 697.142L301.552 697.623C299.645 692.26 300.491 687.83 302.315 682.663C311.231 668.386 318.013 666.053 331.562 657.365C335.811 657.339 340.296 658.85 344.544 659.356C352.361 660.286 362.232 657.913 368.341 652.878C378.972 644.115 377.591 630.763 378.84 618.493Q379.698 609.227 380.962 600.008C381.032 595.186 384.898 583.381 382.08 579.519C381.583 578.838 380.333 578.862 379.534 578.719C380.449 578.693 382.043 578.782 382.665 578.108C385.088 575.478 384.192 569.935 384.052 566.641C388.158 566.606 392.631 566.495 396.655 565.699C402.234 564.596 405.45 562.34 408.562 557.627C405.993 541.934 400.616 526.854 397.653 511.198C394.794 496.095 392.6 480.814 390.119 465.642C388.748 457.257 387.816 448.495 385.177 440.403C395.046 428.409 404.049 417.333 402.472 400.812C401.754 393.288 398.108 386.765 392.293 382C380.529 372.357 367.739 373.817 353.635 375.344C332.274 377.657 311.031 380.966 289.673 383.394Q264.668 386.123 239.737 389.465C226.806 391.168 213.022 392.474 200.614 396.639C194.864 398.569 189.353 402.029 185.486 406.742C182.277 410.652 181.36 413.749 181.108 418.659C180.65 427.614 182.147 436.885 182.731 445.83Q184.264 473.251 186.126 500.652Q188.092 527.788 189.552 554.956C190.196 568.381 190.258 581.815 191.587 595.203C193.601 616.029 192.289 638.86 186.372 658.999L185.475 659.597Z"/>
	<path fill="#012A35" transform="scale(2.43848 2.43848)" d="M191.587 595.203C190.258 581.815 190.196 568.381 189.552 554.956Q188.092 527.788 186.126 500.652Q184.264 473.251 182.731 445.83C182.147 436.885 180.65 427.614 181.108 418.659C181.36 413.749 182.277 410.652 185.486 406.742C189.353 402.029 194.864 398.569 200.614 396.639C213.022 392.474 226.806 391.168 239.737 389.465Q264.668 386.123 289.673 383.394C311.031 380.966 332.274 377.657 353.635 375.344C367.739 373.817 380.529 372.357 392.293 382C398.108 386.765 401.754 393.288 402.472 400.812C404.049 417.333 395.046 428.409 385.177 440.403C387.816 448.495 388.748 457.257 390.119 465.642C392.6 480.814 394.794 496.095 397.653 511.198C400.616 526.854 405.993 541.934 408.562 557.627C405.45 562.34 402.234 564.596 396.655 565.699C392.631 566.495 388.158 566.606 384.052 566.641C384.192 569.935 385.088 575.478 382.665 578.108C382.043 578.782 380.449 578.693 379.534 578.719C380.333 578.862 381.583 578.838 382.08 579.519C384.898 583.381 381.032 595.186 380.962 600.008Q379.698 609.227 378.84 618.493C377.591 630.763 378.972 644.115 368.341 652.878C362.232 657.913 352.361 660.286 344.544 659.356C340.296 658.85 335.811 657.339 331.562 657.365C318.013 666.053 311.231 668.386 302.315 682.663C300.491 687.83 299.645 692.26 301.552 697.623L300.729 699.008C299.561 699.641 299.068 699.776 297.747 699.503C288.862 697.664 280.044 694.741 271.177 692.661Q225.255 681.83 179.502 670.3C182.1 667.147 183.195 663.019 185.475 659.597L186.372 658.999C192.289 638.86 193.601 616.029 191.587 595.203Z"/>
	<path fill="#F6F6F6" transform="scale(2.43848 2.43848)" d="M337.093 595.41C351.766 598.525 365.994 599.644 380.962 600.008Q379.698 609.227 378.84 618.493C370.238 618.391 361.683 619.098 353.055 618.846C348.354 618.708 343.022 618.619 339.66 614.8C335.187 609.719 336.529 601.568 337.093 595.41Z"/>
	<path fill="#D3D4D4" transform="scale(2.43848 2.43848)" d="M235.593 564.506C227.366 549.121 221.541 533.605 226.767 516.064C228.417 510.527 231.6 504.616 236.861 501.81C239.743 500.273 242.85 500.037 245.951 501.045C249.072 502.059 251.718 504.09 254.014 506.388C254.638 518.027 254.334 529.701 254.243 541.352Q254.014 564.943 254.062 588.535C254.069 598.235 253.468 608.289 254.446 617.937C254.646 619.908 254.789 622.381 256.314 623.777C263.417 630.278 319.38 653.312 331.562 657.365C318.013 666.053 311.231 668.386 302.315 682.663C295.492 676.663 287.645 671.771 280.149 666.664C265.783 656.875 250.363 646.159 238.608 633.235C227.366 620.874 224.414 604.663 228.125 588.53C229.143 584.106 231.771 578.692 231.734 574.222C231.722 572.849 231.398 572.484 230.432 571.573L235.593 564.506Z"/>
	<path fill="#F6F6F6" transform="scale(2.43848 2.43848)" d="M230.432 571.573C231.398 572.484 231.722 572.849 231.734 574.222C231.771 578.692 229.143 584.106 228.125 588.53C224.414 604.663 227.366 620.874 238.608 633.235C250.363 646.159 265.783 656.875 280.149 666.664C287.645 671.771 295.492 676.663 302.315 682.663C300.491 687.83 299.645 692.26 301.552 697.623L300.729 699.008C299.561 699.641 299.068 699.776 297.747 699.503C288.862 697.664 280.044 694.741 271.177 692.661Q225.255 681.83 179.502 670.3C182.1 667.147 183.195 663.019 185.475 659.597L186.372 658.999C192.289 638.86 193.601 616.029 191.587 595.203C193.548 595.43 195.394 595.552 197.358 595.359C212.336 593.887 221.534 582.418 230.432 571.573Z"/>
	<path fill="#F6F6F6" transform="scale(2.43848 2.43848)" d="M293.047 436.987C312.987 441.02 333.713 440.761 353.958 440.744C364.344 440.735 374.807 440.996 385.177 440.403C387.816 448.495 388.748 457.257 390.119 465.642C392.6 480.814 394.794 496.095 397.653 511.198C400.616 526.854 405.993 541.934 408.562 557.627C405.45 562.34 402.234 564.596 396.655 565.699C392.631 566.495 388.158 566.606 384.052 566.641C384.192 569.935 385.088 575.478 382.665 578.108C382.043 578.782 380.449 578.693 379.534 578.719C372.923 578.299 366.353 578.155 359.759 577.411C350.715 576.391 341.759 574.792 332.645 574.476C325.39 578.764 321.888 584.749 318.142 592.03C309.634 589.492 301.772 584.363 295.341 578.311C276.178 560.28 280.264 546.275 279.476 522.644C279.124 512.079 277.705 501.565 277.423 490.988C283.37 488.323 288.653 485.519 292.201 479.727C299.663 467.548 296.249 449.928 293.047 436.987Z"/>
	<path fill="#012A35" transform="scale(2.43848 2.43848)" d="M354.365 513.459C356.695 513.427 358.733 514.059 360.515 515.593C362.861 517.611 363.713 520.624 363.861 523.618C364.145 529.359 362.155 533.591 358.406 537.69C355.697 537.583 353.567 536.963 351.563 535.026C349.34 532.877 348.476 529.896 348.416 526.867C348.309 521.422 350.603 517.212 354.365 513.459Z"/>
	<path fill="#012A35" transform="scale(2.43848 2.43848)" d="M346.987 489.681C358.439 488.246 371.261 489.216 382.448 491.823C382.706 498.088 383.34 504.38 383.738 510.643C375.732 510.339 367.811 508.706 359.771 508.495C347.785 508.406 336.222 510.679 324.615 513.384C325.761 507.931 327.009 502.221 330.452 497.689C334.63 492.187 340.468 490.478 346.987 489.681Z"/>
	<path fill="#012A35" transform="scale(2.43848 2.43848)" d="M630.305 408.235C650.079 389.707 675.342 377.836 701.775 372.603C730.235 366.968 764.697 368.242 791.644 379.63C802.056 384.031 811.65 390.408 821.011 396.671C823.918 399.381 827.041 403.295 830.135 405.578C836.589 408.089 867.341 437.877 875.128 445.525C878.268 448.608 881.117 452.071 884.338 455.046L885.055 454.693L885.836 455.38L886.543 455.068C887.714 451.425 887.065 447.882 887.292 444.17L887.352 443.293C887.001 441.579 886.804 440.087 886.836 438.336C904.9 474.76 906.778 528.612 894.025 566.897C887.519 586.429 877.24 606.025 863.442 621.316C857.691 627.69 851.146 633.428 844.944 639.358C847.013 662.402 854.33 687.855 871.537 704.355C863.31 705.504 855.062 705.652 846.768 705.57C838.829 704.272 830.434 704.663 822.391 703.547C813.177 702.268 804.33 699.521 795.195 697.998C787.336 695.212 780.045 691.513 773.788 685.947C754.331 668.64 745.64 641.813 744.226 616.528C732.956 619.315 722.602 624.309 711.74 628.272C706.773 630.085 701.439 631.113 696.566 633.077C686.551 636.415 666.011 637.377 655.828 634.838C649.721 633.315 644.059 629.898 640.846 624.352C638.712 620.671 636.538 613.494 637.589 609.295L638.401 608.884C638.172 608.768 637.919 608.692 637.715 608.537C635.728 607.029 635.934 585.36 635.893 581.383C634.687 581.088 635.145 581.228 634.001 580.841C628.382 578.942 632.612 561.014 629.773 555.823C627.337 551.369 621.525 551.166 617.151 549.994C614.421 549.263 611.771 548.258 610.374 545.623C609.736 544.419 609.207 542.414 609.382 541.047C610.161 534.97 623.383 520.684 627.263 514.584C631.444 508.011 634.733 501.168 636.899 493.681C630.301 472.175 631.121 447.615 634.435 425.446C632.444 419.817 631.266 414.114 630.305 408.235Z"/>
	<path fill="#FE4463" transform="scale(2.43848 2.43848)" d="M830.135 405.578C836.589 408.089 867.341 437.877 875.128 445.525C878.268 448.608 881.117 452.071 884.338 455.046L885.055 454.693L885.836 455.38L886.543 455.068C887.714 451.425 887.065 447.882 887.292 444.17L887.352 443.293C887.001 441.579 886.804 440.087 886.836 438.336C904.9 474.76 906.778 528.612 894.025 566.897C887.519 586.429 877.24 606.025 863.442 621.316C857.691 627.69 851.146 633.428 844.944 639.358C843.119 626.818 845.088 612.73 845.954 600.137C849.641 546.47 869.363 491.66 848.241 439.147C843.408 427.132 836.838 416.568 830.135 405.578Z"/>
	<path fill="#FC979A" transform="scale(2.43848 2.43848)" d="M885.055 454.693L885.836 455.38L886.543 455.068C887.714 451.425 887.065 447.882 887.292 444.17L887.352 443.293Q892.241 456.748 896.59 470.386C892.814 465.301 888.802 459.506 884.338 455.046L885.055 454.693Z"/>
	<path fill="#F6F6F6" transform="scale(2.43848 2.43848)" d="M634.435 425.446C654.345 459.389 683.693 481.37 719.308 496.924C726.378 500.012 733.633 503.539 741.105 505.535Q742.965 506.043 744.864 506.381C749.534 502.796 752.015 498.79 758.59 499.627C762.555 500.131 765.923 502.493 768.27 505.653C772.841 511.807 773.359 520.375 772.122 527.717C770.64 536.517 766.103 545.245 758.713 550.478C755.094 553.041 751.352 554.184 747.135 555.306C746.58 575.739 744.642 596.106 744.226 616.528C732.956 619.315 722.602 624.309 711.74 628.272C706.773 630.085 701.439 631.113 696.566 633.077C686.551 636.415 666.011 637.377 655.828 634.838C649.721 633.315 644.059 629.898 640.846 624.352C638.712 620.671 636.538 613.494 637.589 609.295L638.401 608.884C638.172 608.768 637.919 608.692 637.715 608.537C635.728 607.029 635.934 585.36 635.893 581.383C634.687 581.088 635.145 581.228 634.001 580.841C628.382 578.942 632.612 561.014 629.773 555.823C627.337 551.369 621.525 551.166 617.151 549.994C614.421 549.263 611.771 548.258 610.374 545.623C609.736 544.419 609.207 542.414 609.382 541.047C610.161 534.97 623.383 520.684 627.263 514.584C631.444 508.011 634.733 501.168 636.899 493.681C630.301 472.175 631.121 447.615 634.435 425.446Z"/>
	<path fill="#012A35" transform="scale(2.43848 2.43848)" d="M656.112 480.687C659.127 480.236 662.597 480.496 665.599 480.938C677.508 482.689 685.696 490.559 692.621 499.816Q688.013 497.224 683.359 494.716C671.026 489.727 660.645 489.599 647.882 493.211L645.453 482.24L656.112 480.687Z"/>
	<path fill="#012A35" transform="scale(2.43848 2.43848)" d="M658.153 502.046C661.38 501.853 663.968 502.249 666.403 504.538C669.535 507.482 670.212 512.174 670.16 516.264C670.074 523.143 667.882 529.032 662.932 533.816C662.164 533.974 661.531 533.996 660.736 533.951C658.482 533.824 656.451 532.307 655.123 530.563C651.795 526.191 651.035 518.282 651.827 512.96C652.56 508.034 654.175 504.982 658.153 502.046Z"/>
	<path fill="#FE4463" transform="scale(2.43848 2.43848)" d="M635.893 581.383C650.232 581.782 663.938 581.194 677.767 576.912C666.933 590.731 656.411 604.865 638.401 608.884C638.172 608.768 637.919 608.692 637.715 608.537C635.728 607.029 635.934 585.36 635.893 581.383Z"/>
</svg>
