<?xml version="1.0" encoding="utf-8" ?>
<svg xmlns="http://www.w3.org/2000/svg" xmlns:xlink="http://www.w3.org/1999/xlink" width="2497" height="2497">
	<path fill="#F3F5F4" transform="scale(2.43848 2.43848)" d="M0 0L1024 0L1024 1024L0 1024L0 0Z"/>
	<path fill="#06B5AC" transform="scale(2.43848 2.43848)" d="M794.955 697.947C801.312 699.143 807.509 701.128 813.871 702.322C828.658 705.097 842.768 705.625 857.761 705.633C854.14 706.097 850.524 706.012 846.881 705.99C848.999 710.923 851.05 715.817 852.768 720.909C828.187 722.302 803.469 726.573 778.995 729.353C754.18 732.171 729.215 733.546 704.306 735.233C704.772 729.351 705.046 723.055 706.179 717.279C716.639 714.863 727.843 713.783 738.46 711.937C752.097 709.566 765.489 706.321 778.89 702.886C783.919 701.596 790.564 700.619 794.955 697.947Z"/>
	<path fill="#D1D5D6" transform="scale(2.43848 2.43848)" d="M744.144 617.095C744.539 622.81 744.869 628.554 746 634.183C749.762 652.905 760.107 674.112 774.636 686.825C780.71 692.14 787.329 695.465 794.955 697.947C790.564 700.619 783.919 701.596 778.89 702.886C765.489 706.321 752.097 709.566 738.46 711.937C727.843 713.783 716.639 714.863 706.179 717.279C706.456 716.62 706.669 715.976 706.794 715.27C707.507 711.233 709.076 693.512 707.113 690.64C708.696 684.642 708.081 669.973 708.184 662.956C707.944 653.26 702.39 640.713 696.594 633.131C701.225 631.71 705.979 630.775 710.587 629.239C715.866 627.48 738.932 617.252 743.128 617.58C743.345 617.597 743.562 617.624 743.778 617.646L744.144 617.095Z"/>
	<path fill="#022935" transform="scale(2.43848 2.43848)" d="M179.458 670.251C199.962 675.834 220.774 680.32 241.386 685.497L287.033 696.596C290.524 697.416 294.013 698.747 297.486 699.453C298.827 699.725 299.699 699.805 300.94 699.23L301.394 697.13L302.876 697.034C307.899 710.002 314.67 722.815 320.872 735.282C307.136 733.016 293.471 730.208 279.777 727.688L219.798 716.914C201.163 713.533 182.352 711.008 163.779 707.302C168.958 695.05 175.092 682.776 179.458 670.251Z"/>
	<path fill="#FD4463" transform="scale(2.43848 2.43848)" d="M829.01 404.177C835.343 408.121 840.989 413.85 846.518 418.852Q859.611 430.671 872.467 442.748C876.571 446.748 880.531 450.798 884.355 455.071L885.063 454.753L886.399 455.927L886.78 455.607C886.976 452.442 887.609 448.944 887.222 445.8C886.072 436.452 874.696 418.828 869.681 410.664C869.407 410.218 868.465 408.736 868.587 408.261C870.113 409.068 872.79 414.005 874.012 415.65L874.605 414.16Q875.801 416.09 876.95 418.048Q878.099 420.006 879.2 421.992Q880.301 423.978 881.353 425.99Q882.404 428.002 883.407 430.04Q884.409 432.077 885.361 434.138Q886.313 436.199 887.215 438.283Q888.116 440.367 888.967 442.472Q889.817 444.577 890.615 446.703Q891.414 448.828 892.16 450.973Q892.907 453.117 893.6 455.279Q894.294 457.441 894.935 459.619Q895.575 461.797 896.162 463.991Q896.749 466.184 897.283 468.391Q897.816 470.598 898.295 472.817Q898.774 475.036 899.199 477.267Q899.624 479.497 899.994 481.737Q900.364 483.977 900.679 486.226Q900.995 488.474 901.255 490.73Q901.515 492.985 901.72 495.247Q901.925 497.508 902.075 499.773Q902.224 502.039 902.318 504.308Q902.412 506.576 902.451 508.846Q902.49 511.116 902.473 513.387Q902.456 515.657 902.383 517.927Q902.311 520.196 902.183 522.463Q902.055 524.73 901.872 526.993Q901.689 529.256 901.45 531.514Q901.212 533.772 900.918 536.023Q900.624 538.275 900.276 540.518Q899.927 542.762 899.524 544.996Q899.12 547.23 898.662 549.454Q898.204 551.678 897.692 553.89Q895.895 561.917 893.199 569.689Q890.502 577.46 886.941 584.875Q884.696 589.927 882.08 594.798Q879.463 599.669 876.491 604.331Q873.518 608.993 870.206 613.42Q866.894 617.847 863.26 622.014C860.028 625.681 846.602 637.194 845.531 639.538C845.308 640.025 845.306 640.38 845.256 640.881C843.448 630.153 845.116 614.02 845.869 603.005C851.012 527.796 878.635 473.784 829.01 404.177Z"/>
	<path fill="#F89CA1" transform="scale(2.43848 2.43848)" d="M885.063 454.753L886.399 455.927L886.78 455.607C886.976 452.442 887.609 448.944 887.222 445.8C886.072 436.452 874.696 418.828 869.681 410.664C869.407 410.218 868.465 408.736 868.587 408.261C870.113 409.068 872.79 414.005 874.012 415.65C884.193 432.73 890.519 450.536 896.231 469.485Q890.102 462.435 884.355 455.071L885.063 454.753Z"/>
	<path fill="#FD6D65" transform="scale(2.43848 2.43848)" d="M560.444 549.809C553.079 520.771 552.258 490.305 560.256 461.278Q560.845 459.203 561.485 457.143Q562.125 455.083 562.816 453.04Q563.506 450.996 564.247 448.97Q564.987 446.944 565.777 444.937Q566.568 442.93 567.407 440.943Q568.246 438.956 569.134 436.99Q570.022 435.025 570.958 433.081Q571.894 431.138 572.878 429.218Q573.861 427.298 574.892 425.403Q575.922 423.508 576.999 421.639Q578.075 419.77 579.198 417.928Q580.32 416.086 581.488 414.272Q582.655 412.459 583.867 410.674Q585.078 408.889 586.333 407.135Q587.589 405.381 588.887 403.658Q590.185 401.935 591.524 400.245Q592.864 398.555 594.245 396.898Q595.627 395.241 597.048 393.618Q598.469 391.996 599.93 390.409Q601.391 388.822 602.891 387.272Q604.39 385.721 605.928 384.208Q607.465 382.695 609.039 381.22Q610.613 379.745 612.223 378.309Q613.832 376.873 615.477 375.478Q617.121 374.082 618.8 372.727Q620.478 371.372 622.19 370.059Q623.901 368.746 625.644 367.475Q627.387 366.205 629.161 364.977Q630.935 363.75 632.738 362.566Q634.541 361.383 636.373 360.244Q638.205 359.106 640.065 358.012Q641.924 356.919 643.81 355.872C683.462 333.399 730.202 325.29 774.485 337.681C807.867 347.022 838.895 369.754 861.203 395.961C866.021 401.62 870.943 407.685 874.605 414.16L874.012 415.65C872.79 414.005 870.113 409.068 868.587 408.261C868.465 408.736 869.407 410.218 869.681 410.664C874.696 418.828 886.072 436.452 887.222 445.8C887.609 448.944 886.976 452.442 886.78 455.607L886.399 455.927L885.063 454.753L884.355 455.071C880.531 450.798 876.571 446.748 872.467 442.748Q859.611 430.671 846.518 418.852C840.989 413.85 835.343 408.121 829.01 404.177C825.694 400.837 821.975 397.843 818.415 394.767C809.855 389.201 801.523 383.719 792.039 379.786C764.32 368.292 727.633 367.128 698.41 373.307C672.363 378.815 650.113 390.391 630.402 408.124C630.999 414.225 632.079 419.231 634.299 424.934C632.578 448.417 628.844 471.084 636.948 493.871C633.872 504.357 628.652 513.592 622.048 522.276C618.155 527.396 611.62 533.583 609.712 539.714C609.135 541.57 609.799 544.405 610.693 546.084C611.828 548.216 613.952 549.375 616.207 549.995C620.381 551.143 626.879 550.876 629.426 554.919C632.813 560.293 629.255 577.405 633.001 580.838L635.39 581.221C635.666 586.419 635.732 604.78 637.433 608.379L638.398 608.836L637.429 609.268C636.588 614.041 639.029 621.882 641.701 625.75C645.541 631.308 651.916 634.397 658.442 635.479C666.941 636.886 688.218 635.549 696.594 633.131C702.39 640.713 707.944 653.26 708.184 662.956C708.081 669.973 708.696 684.642 707.113 690.64Q701.284 690.195 695.504 689.319Q689.724 688.444 684.024 687.142Q678.325 685.84 672.738 684.119Q667.151 682.398 661.707 680.268C633.705 669.558 609.781 649.789 591.997 625.864C587.854 620.291 583.598 614.364 580.756 608.021C577.905 604.187 575.877 599.416 574.058 595.016Q558.533 595.584 542.999 595.437C536.577 595.411 530.099 595.065 523.689 595.464L560.444 549.809Z"/>
	<path fill="#D1D5D6" transform="scale(2.43848 2.43848)" d="M818.415 394.767C823.294 395.732 841.546 413.998 847.563 418.383C849.965 420.135 853.46 421.072 856.16 422.386C861.773 425.116 869.608 431.656 873.042 436.72C876.12 441.258 878.275 448.142 882.399 451.593C883.453 452.475 884.635 453.413 885.063 454.753L884.355 455.071C880.531 450.798 876.571 446.748 872.467 442.748Q859.611 430.671 846.518 418.852C840.989 413.85 835.343 408.121 829.01 404.177C825.694 400.837 821.975 397.843 818.415 394.767Z"/>
	<path fill="#FD4463" transform="scale(2.43848 2.43848)" d="M580.756 608.021C580.691 607.702 580.631 607.381 580.559 607.063C579.631 602.946 576.547 599.406 575.485 595.231L575.855 594.718C577.407 594.835 578.232 595.317 579.289 596.479C582.136 599.607 583.998 604.003 586.373 607.53C591.158 614.633 596.684 621.635 602.29 628.123C625.248 654.69 658.177 672.428 691.376 682.621C695.6 683.918 700.71 686.205 704.967 686.921C705.476 687.006 705.626 686.968 706.08 686.923C708.035 681.791 707.738 668.435 706.718 662.867C706.697 662.752 706.708 662.634 706.703 662.518L708.184 662.956C708.081 669.973 708.696 684.642 707.113 690.64Q701.284 690.195 695.504 689.319Q689.724 688.444 684.024 687.142Q678.325 685.84 672.738 684.119Q667.151 682.398 661.707 680.268C633.705 669.558 609.781 649.789 591.997 625.864C587.854 620.291 583.598 614.364 580.756 608.021Z"/>
	<defs>
		<linearGradient id="gradient_0" gradientUnits="userSpaceOnUse" x1="702.55511" y1="534.62842" x2="588.59888" y2="538.68475">
			<stop offset="0" stop-color="#EF4154"/>
			<stop offset="1" stop-color="#F66E75"/>
		</linearGradient>
	</defs>
	<path fill="url(#gradient_0)" transform="scale(2.43848 2.43848)" d="M706.703 662.518C700.415 665.259 671.47 665.491 663.972 664.442C660.165 663.909 656.316 663.07 652.801 661.473C636.672 654.143 619.165 634.137 615.384 616.668C613.68 608.795 613.521 592.337 610.493 586.246C606.791 578.799 596.411 577.923 591.572 571.197C589.867 568.828 588.991 565.937 588.803 563.039C588.052 551.439 608.829 521.534 612.634 507.151C614.609 499.683 611.987 484.879 611.601 476.87C611.089 466.267 611.188 455.439 612.845 444.944C614.76 432.812 619.928 415.756 630.402 408.124C630.999 414.225 632.079 419.231 634.299 424.934C632.578 448.417 628.844 471.084 636.948 493.871C633.872 504.357 628.652 513.592 622.048 522.276C618.155 527.396 611.62 533.583 609.712 539.714C609.135 541.57 609.799 544.405 610.693 546.084C611.828 548.216 613.952 549.375 616.207 549.995C620.381 551.143 626.879 550.876 629.426 554.919C632.813 560.293 629.255 577.405 633.001 580.838L635.39 581.221C635.666 586.419 635.732 604.78 637.433 608.379L638.398 608.836L637.429 609.268C636.588 614.041 639.029 621.882 641.701 625.75C645.541 631.308 651.916 634.397 658.442 635.479C666.941 636.886 688.218 635.549 696.594 633.131C702.39 640.713 707.944 653.26 708.184 662.956L706.703 662.518Z"/>
	<path fill="#FD4463" transform="scale(2.43848 2.43848)" d="M496.217 232.706C517.043 230.082 543.999 234.744 563.584 242.072C585.122 250.131 607.04 264.518 616.706 286.182C623.27 300.893 624.226 316.772 618.339 331.86C609.036 355.702 586.644 375.255 563.611 385.481C561.427 401.521 558.886 418.602 558.351 434.772C550.628 428.899 543.374 421.721 535.992 415.351Q525.599 406.404 514.88 397.851C480.593 398.473 446.442 389.742 419.643 367.482C404.67 355.044 392.613 337.184 390.937 317.403C389.536 300.88 395.695 284.86 406.287 272.318C427.719 246.941 464.071 235.281 496.217 232.706Z"/>
	<path fill="#F3F5F4" transform="scale(2.43848 2.43848)" d="M504.16 299.646C507.212 299.642 510.159 299.748 512.979 301.044Q513.71 301.376 514.404 301.779Q515.098 302.182 515.748 302.652Q516.399 303.122 516.999 303.655Q517.599 304.188 518.143 304.778Q518.688 305.368 519.17 306.01Q519.652 306.651 520.069 307.337Q520.485 308.024 520.83 308.748Q521.176 309.473 521.447 310.228Q521.721 310.986 521.919 311.767Q522.116 312.549 522.235 313.346Q522.354 314.143 522.393 314.948Q522.432 315.753 522.39 316.558Q522.349 317.363 522.227 318.159Q522.106 318.956 521.906 319.737Q521.706 320.518 521.429 321.275Q521.152 322.031 520.801 322.757C518.603 327.313 514.765 329.91 510.102 331.508C506.646 331.797 504.319 331.728 501.104 330.257Q500.351 329.913 499.637 329.495Q498.922 329.077 498.253 328.59Q497.584 328.103 496.967 327.551Q496.35 326.999 495.791 326.388Q495.233 325.778 494.738 325.114Q494.243 324.45 493.817 323.741Q493.391 323.031 493.039 322.282Q492.686 321.533 492.41 320.753Q492.142 319.979 491.952 319.183Q491.762 318.387 491.651 317.575Q491.541 316.764 491.512 315.946Q491.483 315.128 491.535 314.311Q491.587 313.494 491.72 312.686Q491.853 311.878 492.066 311.087Q492.278 310.297 492.568 309.531Q492.858 308.765 493.222 308.032C495.586 303.347 499.382 301.204 504.16 299.646Z"/>
	<path fill="#F3F5F4" transform="scale(2.43848 2.43848)" d="M552.455 299.586C555.719 299.502 558.624 300.006 561.497 301.624Q562.209 302.032 562.877 302.509Q563.545 302.986 564.163 303.527Q564.78 304.068 565.341 304.667Q565.902 305.267 566.401 305.919Q566.9 306.571 567.332 307.269Q567.763 307.967 568.124 308.704Q568.484 309.442 568.77 310.211Q569.056 310.981 569.264 311.775Q569.463 312.57 569.581 313.381Q569.698 314.192 569.734 315.01Q569.77 315.829 569.724 316.647Q569.677 317.465 569.549 318.275Q569.42 319.084 569.211 319.876Q569.002 320.669 568.715 321.436Q568.427 322.203 568.064 322.938Q567.701 323.673 567.266 324.367C564.645 328.591 560.867 330.812 556.131 331.939C553.099 332.02 550.499 331.666 547.775 330.248C543.547 328.048 540.553 324.079 539.309 319.504C538.196 315.407 538.575 310.98 540.737 307.286C543.426 302.693 547.537 300.846 552.455 299.586Z"/>
	<path fill="#F3F5F4" transform="scale(2.43848 2.43848)" d="M456.459 299.569C459.451 299.439 462.295 299.845 465.061 301.046Q465.797 301.358 466.496 301.744Q467.196 302.13 467.852 302.586Q468.508 303.042 469.114 303.562Q469.72 304.083 470.27 304.663Q470.819 305.243 471.306 305.876Q471.793 306.51 472.213 307.19Q472.632 307.87 472.98 308.589Q473.327 309.309 473.599 310.06Q473.867 310.831 474.057 311.625Q474.247 312.418 474.358 313.227Q474.469 314.035 474.5 314.851Q474.53 315.666 474.481 316.481Q474.431 317.295 474.301 318.101Q474.171 318.907 473.962 319.695Q473.754 320.484 473.468 321.249Q473.183 322.013 472.823 322.746C470.52 327.521 466.882 329.873 462.097 331.635C458.251 332.087 454.937 331.754 451.508 329.789Q450.786 329.37 450.111 328.878Q449.436 328.387 448.815 327.829Q448.193 327.271 447.633 326.652Q447.072 326.033 446.578 325.36Q446.083 324.687 445.661 323.967Q445.238 323.247 444.892 322.488Q444.545 321.728 444.278 320.937Q444.011 320.145 443.827 319.331C442.789 314.913 443.465 310.044 445.965 306.224C448.484 302.375 452.11 300.592 456.459 299.569Z"/>
	<path fill="#06B5AC" transform="scale(2.43848 2.43848)" d="M186.097 660.242C177.834 651.604 170.669 641.991 163.568 632.396C135.324 594.235 118.055 554.442 119.147 506.113C120.222 458.544 141.636 414.39 175.928 381.78Q177.458 380.327 179.023 378.912Q180.589 377.497 182.188 376.121Q183.788 374.745 185.421 373.409Q187.054 372.073 188.719 370.777Q190.384 369.481 192.081 368.226Q193.777 366.972 195.504 365.76Q197.231 364.547 198.987 363.377Q200.743 362.208 202.528 361.082Q204.312 359.955 206.124 358.874Q207.935 357.792 209.773 356.754Q211.61 355.717 213.473 354.726Q215.335 353.734 217.221 352.788Q219.107 351.843 221.016 350.944Q222.925 350.045 224.856 349.193Q226.786 348.341 228.737 347.537Q230.688 346.733 232.658 345.977Q234.628 345.221 236.615 344.513Q238.603 343.806 240.608 343.147Q242.613 342.489 244.633 341.88Q246.653 341.271 248.688 340.712Q250.722 340.153 252.77 339.644Q254.818 339.135 256.877 338.677Q258.937 338.219 261.007 337.811Q263.078 337.403 265.157 337.046Q267.237 336.69 269.325 336.384Q271.412 336.079 273.507 335.824Q275.602 335.57 277.702 335.368Q279.802 335.165 281.907 335.014Q284.011 334.863 286.119 334.764Q288.227 334.665 290.336 334.617Q292.446 334.57 294.556 334.574Q296.666 334.579 298.775 334.635C342.872 335.801 385.946 352.698 416.548 385.03C452.775 423.306 470.914 465.347 469.352 518.576C469.032 529.448 467.676 540.228 466.33 551.012C470.894 555.676 474.861 560.86 478.982 565.908C486.767 575.442 494.267 585.019 501.432 595.032C494.852 595.649 488.017 595.207 481.408 595.135L450.878 594.961C433.33 633.986 391.238 668.147 351.812 683.193C341.849 686.995 331.367 689.976 320.965 692.314C315.609 693.519 309.785 694.302 304.564 695.902C303.667 696.177 303.471 696.327 302.876 697.034L301.394 697.13C299.713 691.474 300.151 687.763 302.423 682.483C309.577 669.982 319.545 663.739 332.056 657.351C335.531 657.73 338.953 658.746 342.409 659.311C350.827 660.688 361.146 658.377 367.949 653.182C380.249 643.789 377.373 631.739 378.948 618.493C379.052 612.457 380.253 606.047 380.945 600.027C381.306 594.99 384.122 583.455 382.543 579.226L381.037 578.747L382.718 578.542C384.761 576.173 384.074 569.913 384.08 566.84C388.898 566.202 394.008 566.377 398.739 565.278C403.532 564.165 405.912 561.914 408.446 557.835C407.694 548.856 404.552 540.096 402.154 531.447Q399.129 520.264 397.138 508.851C394.276 492.191 391.834 475.47 388.888 458.821C387.849 452.944 387.385 445.917 385.172 440.424C395.659 428.414 403.804 418.393 402.765 401.456C402.309 394.025 399.225 387.791 393.579 382.936C386.132 376.532 375.909 373.078 366.114 373.957C342.813 376.049 319.526 379.856 296.26 382.476C275.735 384.787 255.329 387.048 234.875 389.975C224.781 391.42 214.332 392.48 204.521 395.323C197.516 397.353 190.761 400.371 185.967 406.085C183.643 408.855 181.011 413.173 180.854 416.892C180.494 425.416 182.009 434.68 182.514 443.249Q184.161 474.57 186.362 505.857Q188.227 530.735 189.494 555.65C190.062 567.967 190.021 580.587 191.259 592.842C191.329 593.532 191.434 594.198 191.551 594.881C194.311 613.802 191.324 641.945 186.097 660.242Z"/>
	<path fill="#022935" transform="scale(2.43848 2.43848)" d="M191.551 594.881C191.434 594.198 191.329 593.532 191.259 592.842C190.021 580.587 190.062 567.967 189.494 555.65Q188.227 530.735 186.362 505.857Q184.16 474.57 182.514 443.249C182.009 434.68 180.494 425.416 180.854 416.892C181.011 413.173 183.643 408.855 185.967 406.085C190.761 400.371 197.516 397.353 204.521 395.323C214.332 392.48 224.781 391.42 234.875 389.975C255.329 387.048 275.735 384.787 296.26 382.476C319.526 379.856 342.813 376.049 366.114 373.957C375.909 373.078 386.132 376.532 393.579 382.936C399.225 387.791 402.309 394.025 402.765 401.456C403.804 418.393 395.659 428.414 385.172 440.424C387.385 445.917 387.849 452.944 388.888 458.821C391.834 475.47 394.276 492.191 397.138 508.851Q399.129 520.264 402.154 531.447C404.552 540.096 407.694 548.856 408.446 557.835C405.912 561.914 403.532 564.165 398.739 565.278C394.008 566.377 388.898 566.202 384.08 566.84C384.074 569.913 384.761 576.173 382.718 578.542L381.037 578.747L382.543 579.226C384.122 583.455 381.306 594.99 380.945 600.027C380.253 606.047 379.052 612.457 378.948 618.493C377.373 631.739 380.249 643.789 367.949 653.182C361.146 658.377 350.827 660.688 342.409 659.311C338.953 658.746 335.531 657.73 332.056 657.351C319.545 663.739 309.577 669.982 302.423 682.483C297.389 677.443 290.433 673.405 284.564 669.328C270.103 659.281 246.882 643.235 236.265 630.088C226.6 618.12 225.146 602.067 228.751 587.577C229.825 583.262 231.939 578.785 232.216 574.352C232.32 572.694 231.883 572.296 230.828 571.061C222.659 581.783 212.772 593.703 198.404 595.31C196.106 595.567 193.81 595.311 191.551 594.881Z"/>
	<path fill="#F3F5F4" transform="scale(2.43848 2.43848)" d="M337.048 595.544C351.64 598.938 366.016 599.824 380.945 600.027C380.253 606.047 379.052 612.457 378.948 618.493C370.346 618.584 353.7 619.672 345.813 618.122C343.478 617.664 341.072 616.686 339.392 614.947C335.296 610.708 336.832 601.028 337.048 595.544Z"/>
	<path fill="#D1D5D6" transform="scale(2.43848 2.43848)" d="M235.602 564.391C226.92 549.98 222.052 534.204 226.351 517.346C227.845 511.483 230.802 505.412 236.159 502.2C239.24 500.352 242.682 499.916 246.124 500.95C249.508 501.966 251.709 503.978 254.074 506.506C254.606 517.041 254.284 527.678 254.246 538.231Q254.003 564.491 254.146 590.75C254.171 599.798 253.614 609.094 254.381 618.1C254.536 619.913 254.534 622.355 255.926 623.65C260.616 628.018 323.894 655.137 332.056 657.351C319.545 663.739 309.577 669.982 302.423 682.483C297.389 677.443 290.433 673.405 284.564 669.328C270.103 659.281 246.882 643.235 236.265 630.088C226.6 618.12 225.146 602.067 228.751 587.577C229.825 583.262 231.939 578.785 232.216 574.352C232.32 572.694 231.883 572.296 230.828 571.061C232.368 568.79 233.932 566.571 235.602 564.391Z"/>
	<path fill="#F3F5F4" transform="scale(2.43848 2.43848)" d="M293.184 436.952C314.369 441.078 336.548 440.671 358.029 440.683C367.008 440.687 376.223 441.096 385.172 440.424C387.385 445.917 387.849 452.944 388.888 458.821C391.834 475.47 394.276 492.191 397.138 508.851Q399.129 520.264 402.154 531.447C404.552 540.096 407.694 548.856 408.446 557.835C405.912 561.914 403.532 564.165 398.739 565.278C394.008 566.377 388.898 566.202 384.08 566.84C384.074 569.913 384.761 576.173 382.718 578.542L381.037 578.747C373.114 578.445 365.154 578.178 357.275 577.237C349.147 576.266 340.896 574.56 332.695 574.559C325.341 578.419 321.901 584.942 318.116 591.978C309.905 589.317 301.886 584.247 295.579 578.382C275.694 559.891 280.394 547.314 279.501 523.07C279.105 512.32 277.798 501.634 277.348 490.89C283.431 488.675 288.658 485.491 292.201 479.91C299.659 468.163 296.14 449.583 293.184 436.952Z"/>
	<path fill="#022935" transform="scale(2.43848 2.43848)" d="M354.502 513.399C354.976 513.4 355.451 513.393 355.924 513.429C358.156 513.601 360.127 514.743 361.497 516.503C363.879 519.563 364.265 523.903 363.76 527.623C363.184 531.863 361.687 535.197 358.26 537.796C355.399 537.764 353.485 537.235 351.483 535.087C348.901 532.316 348.086 528.143 348.421 524.462C348.863 519.601 350.896 516.526 354.502 513.399Z"/>
	<path fill="#022935" transform="scale(2.43848 2.43848)" d="M346.34 489.674C358.228 488.954 370.796 489.022 382.417 491.681C382.809 498.077 383.485 504.46 383.867 510.864C376.471 510.198 369.173 508.963 361.745 508.52C348.645 508.378 337.244 510.145 324.65 513.458C325.648 507.844 326.733 502.276 330.304 497.639C334.405 492.314 339.92 490.43 346.34 489.674Z"/>
	<path fill="#022935" transform="scale(2.43848 2.43848)" d="M630.402 408.124C650.113 390.391 672.363 378.815 698.41 373.307C727.633 367.128 764.32 368.292 792.039 379.786C801.523 383.719 809.855 389.201 818.415 394.767C821.975 397.843 825.694 400.837 829.01 404.177C878.635 473.784 851.012 527.796 845.869 603.005C845.116 614.02 843.448 630.153 845.256 640.881C846.88 662.829 855.758 688.874 871.98 704.387C867.263 705.139 862.534 705.501 857.761 705.633C842.768 705.625 828.658 705.097 813.871 702.322C807.509 701.128 801.312 699.143 794.955 697.947C787.329 695.465 780.71 692.14 774.636 686.825C760.107 674.112 749.762 652.905 746 634.183C744.869 628.554 744.539 622.81 744.144 617.095L743.778 617.646C743.562 617.624 743.345 617.597 743.128 617.58C738.932 617.252 715.866 627.48 710.587 629.239C705.979 630.775 701.225 631.71 696.594 633.131C688.218 635.549 666.941 636.886 658.442 635.479C651.916 634.397 645.541 631.308 641.701 625.75C639.029 621.882 636.588 614.041 637.429 609.268L638.398 608.836L637.433 608.379C635.732 604.78 635.666 586.419 635.39 581.221L633.001 580.838C629.255 577.405 632.813 560.293 629.426 554.919C626.879 550.876 620.381 551.143 616.207 549.995C613.952 549.375 611.828 548.216 610.693 546.084C609.799 544.405 609.135 541.57 609.712 539.714C611.62 533.583 618.155 527.396 622.048 522.276C628.652 513.592 633.872 504.357 636.948 493.871C628.844 471.084 632.578 448.417 634.299 424.934C632.079 419.231 630.999 414.225 630.402 408.124Z"/>
	<path fill="#F3F5F4" transform="scale(2.43848 2.43848)" d="M634.299 424.934C652.82 459.616 687.299 483.474 722.855 498.425C728.408 500.76 734.022 503.426 739.793 505.168C741.748 505.758 743.607 506.156 745.662 506.084C749.97 502.938 751.47 498.538 757.894 499.489C762.058 500.105 766.316 502.865 768.754 506.258C773.025 512.205 773.412 521.159 772.08 528.156C770.368 537.151 765.531 546.098 757.728 551.174C754.42 553.326 750.989 554.396 747.161 555.152C746.979 575.88 744.563 596.386 744.144 617.095L743.778 617.646C743.562 617.624 743.345 617.597 743.128 617.58C738.932 617.252 715.866 627.48 710.587 629.239C705.979 630.775 701.225 631.71 696.594 633.131C688.218 635.549 666.941 636.886 658.442 635.479C651.916 634.397 645.541 631.308 641.701 625.75C639.029 621.882 636.588 614.041 637.429 609.268L638.398 608.836L637.433 608.379C635.732 604.78 635.666 586.419 635.39 581.221L633.001 580.838C629.255 577.405 632.813 560.293 629.426 554.919C626.879 550.876 620.381 551.143 616.207 549.995C613.952 549.375 611.828 548.216 610.693 546.084C609.799 544.405 609.135 541.57 609.712 539.714C611.62 533.583 618.155 527.396 622.048 522.276C628.652 513.592 633.872 504.357 636.948 493.871C628.844 471.084 632.578 448.417 634.299 424.934Z"/>
	<path fill="#022935" transform="scale(2.43848 2.43848)" d="M655.227 480.686C659.178 480.216 663.39 480.336 667.289 481.155C678.119 483.431 686.88 490.778 692.747 499.913C689.911 498.106 687.082 496.427 684.094 494.882C672.12 489.647 660.349 489.068 647.978 493.298C646.937 489.651 646.168 486.018 645.477 482.29C648.717 481.599 651.942 481.111 655.227 480.686Z"/>
	<path fill="#022935" transform="scale(2.43848 2.43848)" d="M658.453 501.98C659.578 501.92 660.725 501.836 661.845 502.011C664.166 502.374 666.203 503.962 667.537 505.841C670.562 510.105 670.586 516.795 669.673 521.798C668.773 526.729 666.797 531.058 662.631 533.98C661.566 534.096 660.34 534.096 659.299 533.806C657.259 533.238 655.551 531.257 654.52 529.504C651.461 524.305 650.868 515.579 652.342 509.822C653.355 505.867 654.954 503.978 658.453 501.98Z"/>
	<path fill="#FD4463" transform="scale(2.43848 2.43848)" d="M635.39 581.221C649.515 582.239 664.141 581.534 677.701 577.105C668.349 589.037 655.274 606.732 639.033 608.765C638.822 608.792 638.609 608.812 638.398 608.836L637.433 608.379C635.732 604.78 635.666 586.419 635.39 581.221Z"/>
</svg>
